<?xml version="1.0" standalone="no"?>
<!DOCTYPE svg PUBLIC "-//W3C//DTD SVG 20010904//EN"
 "http://www.w3.org/TR/2001/REC-SVG-20010904/DTD/svg10.dtd">
<svg version="1.0" xmlns="http://www.w3.org/2000/svg"
 width="512.000000pt" height="512.000000pt" viewBox="0 0 512.000000 512.000000"
 preserveAspectRatio="xMidYMid meet">

<g transform="translate(0.000000,512.000000) scale(0.100000,-0.100000)"
fill="#000000" stroke="none">
<path d="M2240 4947 c-49 -16 -133 -102 -148 -153 -9 -31 -12 -272 -12 -978
l0 -936 -195 0 -195 0 5 93 c6 91 65 1477 65 1517 0 12 -11 32 -25 45 l-24 25
-751 0 -751 0 -24 -25 c-14 -13 -25 -32 -25 -42 0 -10 36 -862 80 -1893 49
-1158 80 -1974 80 -2133 l0 -258 25 -25 24 -24 2143 2 2143 3 67 32 c93 44
151 100 196 191 l37 76 0 1375 0 1376 -32 67 c-43 92 -101 151 -189 194 -63
31 -85 37 -163 42 l-91 5 0 55 c0 86 -18 131 -77 190 -28 28 -59 52 -67 52
-14 0 -16 20 -16 145 0 142 -1 147 -25 170 -13 14 -31 25 -40 25 -13 0 -15 22
-15 160 l0 160 176 0 c214 0 241 7 309 75 71 70 91 145 63 239 -16 55 -99 138
-154 154 -58 17 -890 17 -948 0 -55 -16 -138 -99 -154 -154 -7 -23 -12 -92
-12 -153 0 -105 1 -113 25 -136 22 -23 32 -25 120 -25 l95 0 0 -160 c0 -138
-2 -160 -15 -160 -9 0 -27 -11 -40 -25 -24 -23 -25 -28 -25 -170 0 -125 -2
-145 -16 -145 -8 0 -39 -24 -67 -52 -59 -59 -77 -104 -77 -190 l0 -55 -91 -5
c-78 -5 -100 -11 -163 -42 -88 -43 -146 -102 -189 -194 -31 -66 -32 -71 -35
-234 l-4 -168 -239 0 -239 0 0 480 0 480 215 0 c216 0 216 0 240 25 l25 24 0
511 0 511 -25 24 -24 25 -358 -1 c-230 -1 -370 -5 -393 -12z m295 -172 l25
-24 0 -351 0 -351 -25 -24 c-23 -24 -29 -25 -160 -25 l-135 0 0 375 0 376 25
24 c23 24 31 25 135 25 104 0 112 -1 135 -25z m345 -52 c0 -78 0 -78 -33 -93
-38 -18 -55 -58 -41 -97 5 -16 23 -34 41 -43 32 -15 33 -15 33 -90 0 -75 -1
-75 -33 -90 -38 -18 -55 -58 -41 -97 5 -16 23 -34 41 -43 33 -15 33 -15 33
-92 l0 -78 -82 0 -83 0 0 400 0 400 83 0 82 0 0 -77z m1735 52 c16 -15 25 -36
25 -55 0 -19 -9 -40 -25 -55 l-24 -25 -456 0 -455 0 0 55 c0 46 4 60 25 80
l24 25 431 0 431 0 24 -25z m-535 -455 l0 -160 -80 0 -80 0 0 160 0 160 80 0
80 0 0 -160z m-2484 49 c-3 -17 -6 -53 -6 -80 l0 -49 -630 0 -630 0 0 49 c0
27 -3 63 -6 80 l-6 31 642 0 643 0 -7 -31z m-16 -321 c0 -61 -40 -1023 -46
-1095 l-6 -73 -339 0 -340 0 -24 -25 -25 -24 0 -1016 0 -1015 -159 0 -160 0
-5 43 c-5 37 -137 3159 -136 3215 l0 22 620 0 620 0 0 -32z m2580 -128 l0 -80
-160 0 -160 0 0 80 0 80 160 0 160 0 0 -80z m-1760 -560 l0 -480 -80 0 -80 0
0 480 0 480 80 0 80 0 0 -480z m1895 295 c21 -20 25 -34 25 -80 l0 -55 -320 0
-320 0 0 55 c0 46 4 60 25 80 l24 25 271 0 271 0 24 -25z m339 -307 c55 -16
138 -99 154 -154 17 -60 17 -2648 0 -2708 -16 -55 -99 -138 -154 -154 -28 -8
-125 -12 -296 -12 l-254 0 35 72 c35 70 36 74 40 214 3 142 3 143 -22 168 -25
25 -30 26 -160 26 l-133 0 35 72 36 72 0 335 0 336 -32 67 c-44 93 -100 151
-191 196 l-76 37 -208 3 -208 4 0 615 c0 454 3 626 12 657 15 51 99 137 148
153 52 16 1219 17 1274 1z m-3354 -683 c0 -67 29 -105 80 -105 51 0 80 38 80
105 l0 55 800 0 800 0 0 -400 0 -399 -448 -3 -448 -3 -76 -37 c-91 -45 -147
-103 -191 -196 l-32 -67 0 -336 0 -335 36 -72 35 -72 -133 0 c-130 0 -135 -1
-160 -26 -25 -25 -25 -26 -22 -168 4 -140 5 -144 40 -214 l35 -72 -118 0 -118
0 0 55 c0 67 -29 105 -80 105 -51 0 -80 -38 -80 -105 l0 -55 -160 0 -160 0 0
1200 0 1200 160 0 160 0 0 -55z m2314 -917 c55 -16 138 -99 154 -154 17 -57
17 -571 0 -628 -16 -55 -99 -138 -154 -154 -59 -17 -1369 -17 -1428 0 -55 16
-138 99 -154 154 -17 57 -17 571 0 628 15 51 99 137 148 153 52 16 1378 17
1434 1z m-2794 -1268 l0 -160 -160 0 -160 0 0 160 0 160 160 0 160 0 0 -160z
m3200 104 c0 -31 -5 -75 -12 -98 -16 -55 -99 -138 -154 -154 -59 -17 -1849
-17 -1908 0 -55 16 -138 99 -154 154 -7 23 -12 67 -12 98 l0 56 1120 0 1120 0
0 -56z"/>
<path d="M3850 3106 c-183 -39 -315 -128 -377 -254 -40 -81 -40 -183 0 -264
55 -112 181 -203 337 -245 45 -12 103 -18 190 -18 87 0 145 6 190 18 156 42
282 133 337 245 40 82 40 183 0 265 -55 111 -180 202 -332 243 -83 22 -264 27
-345 10z m334 -175 c120 -42 185 -96 207 -171 40 -134 -122 -262 -351 -277
-182 -12 -357 56 -417 162 -70 124 45 258 262 305 67 15 233 4 299 -19z"/>
<path d="M1305 2375 c-24 -23 -25 -31 -25 -135 0 -104 1 -112 25 -135 15 -16
36 -25 55 -25 19 0 40 9 55 25 24 23 25 31 25 135 0 104 -1 112 -25 135 -15
16 -36 25 -55 25 -19 0 -40 -9 -55 -25z"/>
<path d="M1305 1895 c-24 -23 -25 -31 -25 -135 0 -104 1 -112 25 -135 15 -16
36 -25 55 -25 19 0 40 9 55 25 24 23 25 31 25 135 0 104 -1 112 -25 135 -15
16 -36 25 -55 25 -19 0 -40 -9 -55 -25z"/>
<path d="M1305 1415 c-24 -23 -25 -31 -25 -135 0 -104 1 -112 25 -135 15 -16
36 -25 55 -25 19 0 40 9 55 25 24 23 25 31 25 135 0 104 -1 112 -25 135 -15
16 -36 25 -55 25 -19 0 -40 -9 -55 -25z"/>
<path d="M1305 935 c-24 -23 -25 -31 -25 -135 0 -104 1 -112 25 -135 15 -16
36 -25 55 -25 19 0 40 9 55 25 24 23 25 31 25 135 0 104 -1 112 -25 135 -15
16 -36 25 -55 25 -19 0 -40 -9 -55 -25z"/>
</g>
</svg>
