<?xml version="1.0" standalone="no"?>
<!DOCTYPE svg PUBLIC "-//W3C//DTD SVG 20010904//EN"
 "http://www.w3.org/TR/2001/REC-SVG-20010904/DTD/svg10.dtd">
<svg version="1.0" xmlns="http://www.w3.org/2000/svg"
 width="512.000000pt" height="512.000000pt" viewBox="0 0 512.000000 512.000000"
 preserveAspectRatio="xMidYMid meet">

<g transform="translate(0.000000,512.000000) scale(0.100000,-0.100000)"
fill="#000000" stroke="none">
<path d="M1265 5105 c-234 -51 -427 -216 -562 -481 -227 -445 -230 -989 -7
-1424 66 -130 127 -211 238 -318 155 -150 171 -200 155 -469 -16 -277 -16
-268 5 -292 13 -14 31 -21 57 -21 64 0 70 18 86 272 13 194 13 229 -1 294 -25
127 -65 191 -200 328 -90 90 -135 145 -173 211 -226 381 -243 926 -42 1328
143 285 375 451 609 434 233 -16 432 -178 566 -461 84 -179 124 -367 124 -593
0 -220 -31 -390 -104 -562 -59 -141 -112 -217 -247 -357 -172 -178 -208 -254
-209 -439 0 -275 72 -995 151 -1500 56 -356 59 -380 59 -435 0 -75 -25 -184
-56 -247 -37 -76 -115 -157 -182 -190 -78 -38 -183 -40 -257 -3 -103 50 -192
171 -224 305 -19 75 -15 216 9 355 35 207 88 581 112 798 l23 204 -28 24 c-35
30 -71 31 -100 1 -20 -19 -25 -45 -45 -222 -26 -225 -59 -463 -103 -735 -50
-307 -38 -459 48 -623 45 -85 145 -190 219 -229 183 -98 377 -70 533 77 162
153 228 379 187 640 -8 55 -29 186 -45 290 -61 386 -116 880 -142 1276 -22
339 -10 382 154 544 199 195 306 401 374 718 28 129 25 486 -5 623 -89 409
-291 708 -563 833 -121 56 -285 75 -414 46z"/>
<path d="M3007 5106 c-58 -22 -105 -63 -132 -117 l-26 -50 3 -792 3 -792 29
-85 c67 -201 172 -341 353 -471 142 -103 180 -187 169 -378 -27 -463 -100
-1101 -173 -1516 -38 -211 -37 -386 0 -500 36 -110 90 -196 167 -269 199 -186
456 -181 650 14 168 168 213 381 156 727 -99 594 -184 1396 -174 1632 6 143
44 205 187 305 188 131 316 334 356 561 12 73 15 208 15 813 0 540 -3 735 -12
766 -16 55 -99 138 -154 154 -89 26 -163 9 -234 -55 -82 -73 -80 -58 -80 -675
l0 -539 -25 -24 c-31 -32 -74 -33 -103 -2 -21 22 -22 32 -22 210 0 181 -1 187
-23 213 -31 35 -82 38 -109 5 -16 -21 -18 -44 -18 -226 0 -202 0 -203 28 -256
70 -134 249 -159 355 -51 68 69 67 63 67 664 l0 540 29 29 c20 20 39 29 61 29
22 0 41 -9 61 -29 l29 -29 0 -727 c0 -820 1 -813 -75 -970 -52 -109 -118 -192
-205 -257 -166 -123 -233 -205 -265 -323 -15 -56 -17 -90 -12 -233 14 -374 77
-941 168 -1505 32 -200 38 -333 18 -413 -32 -133 -121 -254 -224 -304 -74 -37
-179 -35 -257 3 -67 33 -145 114 -182 190 -31 63 -56 172 -56 247 0 55 4 83
59 435 92 587 168 1404 142 1535 -27 138 -89 229 -224 329 -166 122 -264 259
-307 427 -19 73 -20 114 -20 826 0 731 0 748 20 768 45 45 114 35 142 -21 16
-31 18 -80 18 -573 0 -527 0 -541 21 -583 63 -131 247 -165 352 -65 16 15 39
45 50 67 22 39 22 48 25 597 l3 557 30 25 c49 42 105 32 134 -24 12 -23 15
-69 15 -220 0 -177 1 -191 20 -210 30 -30 83 -27 109 6 20 25 21 40 21 214 0
213 -10 263 -64 327 -104 120 -296 105 -381 -31 l-30 -49 -5 -565 -5 -564 -24
-19 c-30 -25 -76 -24 -101 1 -19 19 -20 33 -20 545 0 341 -4 542 -11 575 -13
63 -61 127 -117 158 -53 30 -142 38 -195 18z"/>
</g>
</svg>
