<?xml version="1.0" standalone="no"?>
<!DOCTYPE svg PUBLIC "-//W3C//DTD SVG 20010904//EN"
 "http://www.w3.org/TR/2001/REC-SVG-20010904/DTD/svg10.dtd">
<svg version="1.0" xmlns="http://www.w3.org/2000/svg"
 width="512.000000pt" height="512.000000pt" viewBox="0 0 512.000000 512.000000"
 preserveAspectRatio="xMidYMid meet">

<g transform="translate(0.000000,512.000000) scale(0.100000,-0.100000)"
fill="#000000" stroke="none">
<path d="M1605 4605 c-32 -31 -32 -66 1 -104 l25 -30 -286 -3 -287 -3 -19 -24
c-25 -30 -24 -62 2 -95 l20 -26 305 0 305 0 -3 -76 -3 -75 -50 -17 c-28 -10
-71 -29 -96 -44 -56 -33 -164 -147 -204 -215 -28 -48 -35 -53 -90 -68 -83 -24
-128 -48 -210 -113 -87 -70 -279 -256 -396 -384 -80 -88 -89 -102 -89 -136 0
-25 8 -50 22 -68 60 -77 304 -370 318 -381 31 -25 82 -14 174 37 49 28 91 49
92 47 2 -2 -5 -149 -16 -328 -10 -178 -22 -390 -26 -471 l-6 -147 30 -31 30
-30 1112 0 1111 0 24 25 c32 31 32 69 0 100 -22 23 -31 25 -125 25 l-100 0 0
41 c0 48 -27 540 -39 704 -4 61 -6 112 -5 114 2 2 44 -19 93 -48 101 -58 144
-65 185 -28 47 42 326 390 332 414 4 12 4 33 0 46 -11 46 -304 348 -474 489
-17 15 -32 29 -32 32 0 10 251 7 340 -4 102 -13 255 -52 307 -79 21 -10 74
-49 118 -86 110 -93 376 -367 371 -382 -3 -6 -57 -75 -121 -152 l-115 -140
-130 75 c-71 41 -140 74 -154 74 -14 0 -37 -10 -52 -23 -31 -27 -31 -39 -14
-267 13 -180 40 -662 40 -727 l0 -53 -75 0 c-67 0 -79 -3 -100 -25 -32 -31
-32 -69 0 -100 23 -24 30 -25 140 -25 131 0 167 11 183 59 10 27 -1 292 -34
835 l-7 118 24 -12 c13 -7 54 -30 91 -51 67 -39 112 -48 148 -29 19 10 319
370 338 407 17 31 15 64 -6 95 -30 46 -263 288 -362 376 -147 131 -201 168
-295 199 -83 26 -85 28 -120 84 -77 126 -193 223 -302 255 l-54 16 3 71 3 72
643 3 642 2 0 -1711 0 -1711 -145 -154 c-157 -166 -166 -183 -120 -229 47 -48
67 -38 208 105 70 71 130 130 133 130 2 0 62 -59 132 -130 139 -143 160 -153
207 -105 47 46 37 63 -120 230 l-145 153 0 1762 0 1761 -25 24 -24 25 -698 0
-698 0 -24 46 c-31 57 -96 114 -130 114 -75 -1 -99 -94 -38 -142 21 -17 7 -18
-293 -18 l-315 0 -27 50 c-29 52 -97 110 -130 110 -31 0 -54 -17 -67 -49 -10
-24 -10 -34 3 -59 9 -17 24 -36 33 -41 13 -7 -74 -10 -285 -11 -279 0 -303 1
-309 18 -24 65 -106 142 -151 142 -13 0 -34 -11 -47 -25z m833 -361 l-3 -77
-40 -12 c-72 -21 -129 -57 -197 -123 l-68 -65 -40 45 c-52 59 -138 117 -209
138 l-56 18 -3 76 -3 76 311 0 311 0 -3 -76z m800 0 l-3 -75 -51 -18 c-73 -24
-145 -74 -209 -143 l-56 -61 -50 56 c-61 69 -148 128 -222 151 l-57 18 0 74 0
74 325 0 326 0 -3 -76z m-1392 -239 c45 -19 120 -73 138 -99 l13 -21 -254 0
-255 0 55 51 c31 29 75 59 99 67 56 20 159 21 204 2z m789 -9 c48 -22 135 -90
135 -104 0 -4 -115 -7 -255 -7 l-254 0 37 39 c88 91 231 122 337 72z m801 0
c48 -22 134 -90 134 -105 0 -3 -112 -6 -250 -6 -137 0 -250 3 -250 6 0 15 86
83 134 105 37 17 68 24 116 24 48 0 79 -7 116 -24z m-1341 -280 c162 -37 217
-62 316 -145 52 -43 161 -146 242 -230 l148 -151 -18 -23 c-10 -13 -65 -80
-122 -150 l-104 -127 -31 19 c-104 63 -234 131 -251 131 -25 0 -61 -24 -75
-50 -7 -12 -5 -83 5 -222 13 -184 45 -729 45 -778 0 -20 -6 -20 -505 -20
l-506 0 6 73 c3 39 10 162 15 272 6 110 17 303 26 429 17 248 15 263 -33 285
-13 6 -32 11 -41 11 -9 0 -75 -34 -147 -75 -71 -41 -132 -71 -136 -67 -111
133 -229 283 -229 292 0 16 321 336 406 404 77 60 134 85 274 116 122 27 140
28 405 25 174 -2 259 -8 310 -19z m675 14 c93 -12 222 -43 285 -70 22 -10 76
-46 120 -81 80 -64 369 -348 385 -379 7 -13 -18 -50 -111 -163 l-120 -145 -57
32 c-31 18 -89 51 -129 74 -77 45 -106 51 -141 26 -36 -25 -41 -53 -32 -160 9
-96 32 -488 46 -761 l7 -133 -312 0 -311 0 0 28 c0 35 -28 529 -39 697 -5 72
-7 132 -6 134 2 2 44 -20 93 -48 102 -58 146 -65 185 -28 39 35 309 369 325
400 10 20 12 38 6 58 -17 54 -348 397 -472 489 -18 13 -32 27 -32 32 0 11 210
10 310 -2z"/>
<path d="M315 4445 l-25 -24 0 -1764 c0 -1626 -1 -1766 -16 -1778 -10 -8 -75
-76 -145 -151 -140 -149 -150 -168 -104 -213 47 -48 68 -38 207 105 69 71 129
130 132 130 3 0 63 -59 133 -130 141 -143 161 -153 208 -105 46 46 37 63 -120
229 l-145 154 0 1711 0 1711 165 0 c152 0 167 2 185 20 30 30 27 83 -6 109
-25 20 -39 21 -236 21 -208 0 -209 0 -233 -25z"/>
</g>
</svg>
