<?xml version="1.0" standalone="no"?>
<!DOCTYPE svg PUBLIC "-//W3C//DTD SVG 20010904//EN"
 "http://www.w3.org/TR/2001/REC-SVG-20010904/DTD/svg10.dtd">
<svg version="1.0" xmlns="http://www.w3.org/2000/svg"
 width="512.000000pt" height="512.000000pt" viewBox="0 0 512.000000 512.000000"
 preserveAspectRatio="xMidYMid meet">

<g transform="translate(0.000000,512.000000) scale(0.100000,-0.100000)"
fill="#000000" stroke="none">
<path d="M880 4947 c-49 -16 -133 -102 -148 -153 -15 -53 -16 -255 0 -306 14
-48 76 -121 118 -138 l30 -12 0 -138 0 -137 -62 -41 c-189 -121 -331 -319
-390 -542 l-23 -85 0 -842 0 -842 56 -108 c82 -158 94 -199 94 -323 0 -124
-12 -165 -94 -323 l-56 -108 0 -193 0 -192 37 -76 c45 -91 103 -147 196 -191
l67 -32 545 -3 c475 -2 553 -1 611 13 61 15 71 15 120 1 79 -24 1071 -24 1162
0 55 14 65 14 121 -1 54 -14 127 -16 606 -13 l545 3 67 32 c93 44 151 100 196
191 l37 76 4 155 c4 187 -5 237 -66 349 -120 223 -124 381 -13 596 32 62 63
137 70 167 8 40 10 270 8 874 -3 796 -4 822 -24 890 -45 151 -101 256 -193
364 -50 59 -164 152 -223 182 l-38 19 0 140 c0 131 1 139 21 145 33 11 88 65
112 109 18 34 22 62 25 164 5 161 -6 201 -72 267 -32 32 -66 55 -92 63 -58 17
-730 17 -788 0 -55 -16 -138 -99 -154 -154 -15 -53 -16 -255 0 -306 14 -48 76
-121 118 -138 l30 -12 0 -138 0 -137 -65 -42 c-36 -23 -88 -64 -117 -90 l-52
-48 -70 60 c-39 32 -95 73 -123 89 l-53 30 0 138 c0 131 1 139 21 145 33 11
88 65 112 109 18 34 22 62 25 164 5 161 -6 201 -72 267 -32 32 -66 55 -92 63
-58 17 -730 17 -788 0 -55 -16 -138 -99 -154 -154 -15 -53 -16 -255 0 -306 14
-48 76 -121 118 -138 l30 -12 0 -138 0 -137 -65 -42 c-35 -23 -88 -64 -117
-90 l-53 -48 -55 49 c-30 27 -85 68 -122 91 l-68 42 0 137 c0 129 1 137 21
143 33 11 88 65 112 109 18 34 22 62 25 164 5 161 -6 201 -72 267 -32 32 -66
55 -92 63 -54 16 -743 15 -794 -1z m775 -172 c24 -23 25 -31 25 -135 0 -104
-1 -112 -25 -135 l-24 -25 -351 0 -351 0 -24 25 c-24 23 -25 31 -25 135 0 104
1 112 25 135 l24 25 351 0 351 0 24 -25z m1280 0 c24 -23 25 -31 25 -135 0
-104 -1 -112 -25 -135 l-24 -25 -351 0 -351 0 -24 25 c-24 23 -25 31 -25 135
0 104 1 112 25 135 l24 25 351 0 351 0 24 -25z m1280 0 c24 -23 25 -31 25
-135 0 -104 -1 -112 -25 -135 l-24 -25 -351 0 -351 0 -24 25 c-24 23 -25 31
-25 135 0 104 1 112 25 135 l24 25 351 0 351 0 24 -25z m-2695 -550 c0 -52 -1
-95 -2 -95 -2 0 -39 7 -83 15 -122 22 -221 19 -362 -11 l-33 -6 0 96 0 96 240
0 240 0 0 -95z m1280 -1 l0 -96 -32 6 c-143 30 -247 33 -365 11 -43 -8 -79
-15 -80 -15 -2 0 -3 43 -3 95 l0 95 240 0 240 0 0 -96z m1280 0 l0 -96 -32 6
c-143 30 -247 33 -365 11 -43 -8 -79 -15 -80 -15 -2 0 -3 43 -3 95 l0 95 240
0 240 0 0 -96z m-2615 -249 c72 -19 189 -75 230 -109 l30 -25 -444 -1 -445 0
41 30 c79 58 179 99 303 124 47 9 225 -3 285 -19z m1235 11 c95 -21 169 -51
246 -101 l69 -45 -449 0 -450 0 35 26 c55 42 188 101 264 117 89 20 202 20
285 3z m1280 0 c95 -21 169 -51 246 -101 l69 -45 -449 0 -450 0 35 26 c55 42
188 101 264 117 89 20 202 20 285 3z m-2058 -386 c49 -100 68 -174 75 -297 l6
-103 -723 0 -723 0 6 93 c3 50 15 125 27 165 19 68 68 180 92 210 8 9 137 12
607 10 l596 -3 37 -75z m1279 3 c47 -94 70 -185 77 -305 l5 -98 -560 0 -560 0
-6 113 c-6 117 -37 249 -77 328 l-20 39 552 -2 552 -3 37 -72z m1281 -3 c49
-100 68 -174 75 -297 l6 -103 -562 0 -561 0 0 74 c0 125 -26 242 -85 389 -7
16 21 17 541 15 l549 -3 37 -75z m-2482 -1040 l0 -480 -720 0 -720 0 0 320 0
320 480 0 480 0 0 80 0 80 -480 0 -480 0 0 80 0 80 720 0 720 0 0 -480z m1280
0 l0 -480 -560 0 -560 0 0 320 0 320 320 0 320 0 0 80 0 80 -320 0 -320 0 0
80 0 80 560 0 560 0 0 -480z m1280 0 l0 -480 -560 0 -560 0 0 320 0 320 320 0
320 0 0 80 0 80 -320 0 -320 0 0 80 0 80 560 0 560 0 0 -480z m-2562 -728 c-4
-82 -7 -93 -50 -173 -26 -46 -59 -121 -74 -164 -25 -72 -28 -93 -28 -215 0
-122 3 -143 28 -215 15 -43 48 -118 74 -165 l47 -85 3 -139 c5 -177 -5 -214
-72 -281 -32 -32 -66 -55 -92 -63 -59 -17 -1049 -17 -1108 0 -26 8 -60 31 -92
63 -67 67 -77 104 -72 281 3 130 5 142 31 189 97 175 121 258 121 415 0 145
-16 210 -91 355 -53 104 -56 115 -61 198 l-4 87 722 0 722 0 -4 -88z m1280 0
c-4 -82 -7 -93 -50 -173 -26 -46 -59 -121 -74 -164 -25 -72 -28 -93 -28 -215
0 -122 3 -143 28 -215 15 -43 48 -118 74 -165 l47 -85 3 -144 c3 -117 1 -151
-13 -188 -24 -62 -70 -112 -130 -139 l-50 -24 -501 0 -500 0 35 72 c36 71 36
72 40 227 4 187 -5 237 -66 349 -119 221 -124 381 -16 590 67 130 83 183 83
285 l0 77 561 0 561 0 -4 -88z m1280 0 c-4 -82 -7 -93 -50 -173 -26 -46 -59
-121 -74 -164 -25 -72 -28 -93 -28 -215 0 -122 3 -143 28 -215 15 -43 48 -118
74 -165 l47 -85 3 -139 c5 -177 -5 -214 -72 -281 -32 -32 -66 -55 -92 -63 -30
-9 -177 -12 -536 -12 l-494 0 35 72 c36 71 36 72 40 227 4 187 -5 237 -66 349
-119 221 -124 381 -16 590 67 130 83 183 83 285 l0 77 561 0 561 0 -4 -88z"/>
<path d="M1680 2800 l0 -80 80 0 80 0 0 80 0 80 -80 0 -80 0 0 -80z"/>
<path d="M2960 2800 l0 -80 80 0 80 0 0 80 0 80 -80 0 -80 0 0 -80z"/>
<path d="M4240 2800 l0 -80 80 0 80 0 0 80 0 80 -80 0 -80 0 0 -80z"/>
</g>
</svg>
